<?xml version="1.0" encoding="UTF-8"?><svg id="Layer_2" xmlns="http://www.w3.org/2000/svg" xmlns:xlink="http://www.w3.org/1999/xlink" viewBox="0 0 195.18 28.52"><defs><style>.cls-1{fill:url(#Orange);}.cls-1,.cls-2{stroke-width:0px;}.cls-2{fill:#404041;}</style><linearGradient id="Orange" x1="62.67" y1="5.49" x2="74.56" y2="5.49" gradientUnits="userSpaceOnUse"><stop offset="0" stop-color="#f69453"/><stop offset=".5" stop-color="#f37521"/><stop offset="1" stop-color="#d4622a"/></linearGradient></defs><g id="Layer_1-2"><polygon class="cls-1" points="74.46 .52 74.56 .34 62.67 .34 68.62 10.63 74.46 .52"/><polygon class="cls-2" points="42.22 .34 58.41 28.39 65.27 16.48 55.95 .34 42.22 .34"/><path class="cls-2" d="m8.71.47v27.78H0V.47h8.71Z"/><path class="cls-2" d="m39.27,28.25h-8.71l-9.22-13.97v13.97h-8.71V.47h8.71l9.22,14.2V.47h8.71v27.78Z"/><path class="cls-2" d="m87.88.47v27.78h-8.71V.47h8.71Z"/><path class="cls-2" d="m92.69,6.98c1.11-2.14,2.7-3.81,4.77-5,2.07-1.19,4.5-1.78,7.3-1.78,2.41,0,4.56.45,6.45,1.35,1.9.9,3.44,2.18,4.63,3.83,1.19,1.65,1.98,3.57,2.37,5.77h-9.18c-.42-.92-1.01-1.63-1.79-2.14-.77-.51-1.65-.77-2.65-.77-1.46,0-2.62.55-3.47,1.65-.85,1.1-1.28,2.58-1.28,4.43s.42,3.33,1.28,4.43c.85,1.1,2.01,1.65,3.47,1.65.99,0,1.88-.25,2.65-.76s1.37-1.22,1.79-2.14h9.18c-.39,2.2-1.18,4.12-2.37,5.77s-2.73,2.92-4.63,3.83c-1.9.9-4.05,1.35-6.45,1.35-2.8,0-5.23-.59-7.3-1.79-2.07-1.19-3.66-2.86-4.77-5-1.11-2.14-1.67-4.59-1.67-7.34s.56-5.19,1.67-7.34Z"/><path class="cls-2" d="m143.16.47v6.9h-7.38v20.87h-8.71V7.38h-7.3V.47h23.38Z"/><path class="cls-2" d="m154.02.47v15.65c0,1.28.28,2.29.84,3.04.56.75,1.47,1.12,2.73,1.12s2.18-.37,2.79-1.12c.6-.75.9-1.76.9-3.04V.47h8.67v15.65c0,2.64-.55,4.9-1.65,6.77-1.1,1.87-2.6,3.28-4.51,4.22-1.91.94-4.04,1.41-6.4,1.41s-4.44-.47-6.26-1.41c-1.82-.94-3.24-2.34-4.26-4.2-1.02-1.86-1.53-4.12-1.53-6.79V.47h8.67Z"/><path class="cls-2" d="m176.37,26.19c-2.16-1.56-3.33-3.84-3.51-6.85h9.26c.13,1.6.84,2.39,2.12,2.39.47,0,.87-.11,1.2-.33.33-.22.49-.57.49-1.04,0-.65-.35-1.18-1.06-1.59-.71-.41-1.8-.87-3.29-1.39-1.78-.63-3.25-1.24-4.41-1.84-1.16-.6-2.17-1.48-3-2.63-.84-1.15-1.24-2.63-1.22-4.43,0-1.8.46-3.34,1.39-4.61s2.2-2.23,3.81-2.88c1.61-.65,3.42-.98,5.43-.98,3.4,0,6.1.78,8.1,2.35s3.05,3.78,3.16,6.63h-9.38c-.03-.79-.22-1.35-.59-1.69s-.81-.51-1.33-.51c-.37,0-.67.12-.9.37-.24.25-.35.6-.35,1.04,0,.63.35,1.14,1.04,1.55.69.41,1.8.9,3.32,1.47,1.75.65,3.2,1.28,4.33,1.88s2.12,1.44,2.96,2.51,1.26,2.42,1.26,4.04-.42,3.22-1.26,4.57c-.84,1.35-2.05,2.4-3.65,3.16-1.6.76-3.49,1.14-5.69,1.14-3.32,0-6.06-.78-8.22-2.33Z"/></g></svg>